<svg xmlns="http://www.w3.org/2000/svg" viewBox="0 0 64 64" width="64" height="64">
  <defs>
    <linearGradient id="bg" x1="0" y1="0" x2="1" y2="1">
      <stop offset="0" stop-color="#C7FF4E"/>
      <stop offset="0.55" stop-color="#1fb6c0"/>
      <stop offset="1" stop-color="#FFC53D"/>
    </linearGradient>
  </defs>
  <rect x="0" y="0" width="64" height="64" rx="15" fill="#070B0A"/>
  <rect x="2.5" y="2.5" width="59" height="59" rx="13" fill="url(#bg)" opacity="0.16"/>
  <circle cx="32" cy="32" r="20.5" fill="#ffffff" stroke="#0c1110" stroke-width="2"/>
  <g fill="#0c1110">
    <polygon points="32,24.5 39.13,29.68 36.41,38.07 27.59,38.07 24.87,29.68"/>
  </g>
  <g stroke="#0c1110" stroke-width="2.4" stroke-linecap="round">
    <line x1="32" y1="24.5" x2="32" y2="13.5"/>
    <line x1="39.13" y1="29.68" x2="49.4" y2="26.4"/>
    <line x1="36.41" y1="38.07" x2="42.8" y2="46.9"/>
    <line x1="27.59" y1="38.07" x2="21.2" y2="46.9"/>
    <line x1="24.87" y1="29.68" x2="14.6" y2="26.4"/>
  </g>
  <g fill="#0c1110">
    <circle cx="32" cy="12.5" r="2.4"/>
    <circle cx="50.6" cy="25.6" r="2.4"/>
    <circle cx="43.6" cy="48" r="2.4"/>
    <circle cx="20.4" cy="48" r="2.4"/>
    <circle cx="13.4" cy="25.6" r="2.4"/>
  </g>
</svg>
