<svg xmlns="http://www.w3.org/2000/svg" viewBox="0 0 40 40">
  <rect x="1" y="1" width="38" height="38" rx="11" fill="#C8F23C"/>
  <defs><clipPath id="b"><circle cx="20" cy="20" r="13.6"/></clipPath></defs>
  <circle cx="20" cy="20" r="13.6" fill="#FBF7EE" stroke="#15120C" stroke-width="1"/>
  <g clip-path="url(#b)" fill="#15120C"><path d="M20.00 15.10 L24.66 18.49 L22.88 23.96 L17.12 23.96 L15.34 18.49 Z"/><path d="M20.00 2.90 L23.33 5.32 L22.06 9.23 L17.94 9.23 L16.67 5.32 Z"/><path d="M36.26 14.72 L34.99 18.63 L30.88 18.63 L29.61 14.72 L32.93 12.30 Z"/><path d="M30.05 33.83 L25.94 33.83 L24.67 29.92 L27.99 27.50 L31.32 29.92 Z"/><path d="M9.95 33.83 L8.68 29.92 L12.01 27.50 L15.33 29.92 L14.06 33.83 Z"/><path d="M3.74 14.72 L7.07 12.30 L10.39 14.72 L9.12 18.63 L5.01 18.63 Z"/></g>
  <g clip-path="url(#b)" stroke="#15120C" stroke-width="1.5" stroke-linecap="round"><line x1="20.00" y1="15.10" x2="20.00" y2="9.90"/><line x1="24.66" y1="18.49" x2="29.61" y2="16.88"/><line x1="22.88" y1="23.96" x2="25.94" y2="28.17"/><line x1="17.12" y1="23.96" x2="14.06" y2="28.17"/><line x1="15.34" y1="18.49" x2="10.39" y2="16.88"/></g>
</svg>
